<svg width="512" height="512" viewBox="0 0 512 512" fill="none" xmlns="http://www.w3.org/2000/svg">
  <rect width="512" height="512" rx="120" fill="#10B981"/>
  <path d="M140 330C158 384 215 410 270 394C326 377 363 329 365 266C306 266 250 286 214 333C202 292 212 244 243 211C279 172 329 157 381 166C357 110 290 81 232 105C173 130 140 187 149 251C119 235 97 203 91 166C62 211 65 270 91 314C103 333 120 348 140 330Z" fill="white"/>
  <path d="M217 352C249 303 293 279 347 279C319 300 295 328 278 365C259 370 238 367 217 352Z" fill="#064E3B"/>
</svg>
